<?xml version="1.0" encoding="UTF-8" standalone="no"?>
<!-- Created with Inkscape (http://www.inkscape.org/) -->

<svg
   xmlns:dc="http://purl.org/dc/elements/1.1/"
   xmlns:cc="http://creativecommons.org/ns#"
   xmlns:rdf="http://www.w3.org/1999/02/22-rdf-syntax-ns#"
   xmlns:svg="http://www.w3.org/2000/svg"
   xmlns="http://www.w3.org/2000/svg"
   xmlns:sodipodi="http://sodipodi.sourceforge.net/DTD/sodipodi-0.dtd"
   xmlns:inkscape="http://www.inkscape.org/namespaces/inkscape"
   width="32"
   height="32"
   id="svg2"
   version="1.1"
   inkscape:version="0.48.4 r9939"
   sodipodi:docname="browse.svg">
  <defs
     id="defs4" />
  <sodipodi:namedview
     id="base"
     pagecolor="#ffffff"
     bordercolor="#666666"
     borderopacity="1.0"
     inkscape:pageopacity="0.0"
     inkscape:pageshadow="2"
     inkscape:zoom="17.356067"
     inkscape:cx="11.451297"
     inkscape:cy="20.993615"
     inkscape:document-units="px"
     inkscape:current-layer="layer1"
     showgrid="false"
     inkscape:window-width="1366"
     inkscape:window-height="745"
     inkscape:window-x="0"
     inkscape:window-y="0"
     inkscape:window-maximized="1" />
  <metadata
     id="metadata7">
    <rdf:RDF>
      <cc:Work
         rdf:about="">
        <dc:format>image/svg+xml</dc:format>
        <dc:type
           rdf:resource="http://purl.org/dc/dcmitype/StillImage" />
        <dc:title />
      </cc:Work>
    </rdf:RDF>
  </metadata>
  <g
     inkscape:label="Layer 1"
     inkscape:groupmode="layer"
     id="layer1"
     transform="translate(0,-1020.3622)">
    <path
       style="fill:#000000"
       d="m 17.998952,1046.4415 c -0.47942,-0.2924 -0.527323,-0.3839 -2.123188,-4.0549 l -0.363024,-0.8351 -1.03573,0.9491 c -1.243931,1.1398 -1.694717,1.3448 -2.426292,1.1034 -0.998506,-0.3296 -0.990397,-0.2603 -0.990397,-8.4648 -0.04464,-6.516 0.0077,-8.5673 0.527236,-8.8115 0.519541,-0.2442 1.115569,0.2768 1.471258,0.5969 0.891321,0.8021 10.763072,9.7802 10.986689,10.32 0.2385,0.5758 0.02398,1.3244 -0.486474,1.6976 -0.262321,0.1918 -0.863084,0.3309 -1.8415,0.4264 -0.798689,0.078 -1.488668,0.1782 -1.533287,0.2228 -0.04462,0.045 0.318249,0.9498 0.806375,2.0114 1.137506,2.474 1.20311,2.7048 0.944778,3.323 -0.246775,0.5907 -0.606848,0.8424 -1.995477,1.3954 -1.240377,0.4939 -1.318577,0.4987 -1.940966,0.1192 z m 2.006677,-1.7587 c 0.322266,-0.1626 0.585938,-0.3177 0.585938,-0.3447 0,-0.027 -0.597179,-1.344 -1.327064,-2.9266 -0.729885,-1.5825 -1.3047,-3.1696 -1.3047,-3.1696 l 4.715106,-0.489 -10.228091,-9.6616 0.09017,14.081 3.447227,-3.085 2.81494,6.1675 c 0.40132,-0.1337 0.872204,-0.4183 1.206474,-0.572 z"
       id="path8932"
       inkscape:connector-curvature="0"
       sodipodi:nodetypes="cccccczsccccccccccscccccccc" />
    <path
       style="fill:#ffffff;fill-opacity:1"
       d="m 20.184243,1039.5914 c -12.7647634,8.5139 -6.382379,4.2569 0,0 z m -0.178614,5.0914 c 0.322266,-0.1626 0.585938,-0.3177 0.585938,-0.3447 0,-0.027 -0.597179,-1.344 -1.327064,-2.9266 -0.729885,-1.5825 -1.3047,-3.1696 -1.3047,-3.1696 l 4.715106,-0.489 -10.228091,-9.6616 0.09017,14.081 3.447227,-3.085 2.81494,6.1675 c 0.40132,-0.1337 0.872204,-0.4183 1.206474,-0.572 z"
       id="path8932-1"
       inkscape:connector-curvature="0"
       sodipodi:nodetypes="cccscccccccc" />
  </g>
</svg>
