<?xml version="1.0" encoding="UTF-8" standalone="no"?>
<!-- Created with Inkscape (http://www.inkscape.org/) -->

<svg
   xmlns:dc="http://purl.org/dc/elements/1.1/"
   xmlns:cc="http://creativecommons.org/ns#"
   xmlns:rdf="http://www.w3.org/1999/02/22-rdf-syntax-ns#"
   xmlns:svg="http://www.w3.org/2000/svg"
   xmlns="http://www.w3.org/2000/svg"
   xmlns:sodipodi="http://sodipodi.sourceforge.net/DTD/sodipodi-0.dtd"
   xmlns:inkscape="http://www.inkscape.org/namespaces/inkscape"
   version="1.1"
   width="32"
   height="32"
   id="svg2"
   inkscape:version="0.48.4 r9939"
   sodipodi:docname="highlight.svg">
  <sodipodi:namedview
     pagecolor="#ffffff"
     bordercolor="#666666"
     borderopacity="1"
     objecttolerance="10"
     gridtolerance="10"
     guidetolerance="10"
     inkscape:pageopacity="0"
     inkscape:pageshadow="2"
     inkscape:window-width="1366"
     inkscape:window-height="745"
     id="namedview11"
     showgrid="false"
     inkscape:zoom="7.375"
     inkscape:cx="16"
     inkscape:cy="16"
     inkscape:window-x="0"
     inkscape:window-y="0"
     inkscape:window-maximized="1"
     inkscape:current-layer="g3034" />
  <defs
     id="defs4" />
  <metadata
     id="metadata7">
    <rdf:RDF>
      <cc:Work
         rdf:about="">
        <dc:format>image/svg+xml</dc:format>
        <dc:type
           rdf:resource="http://purl.org/dc/dcmitype/StillImage" />
        <dc:title />
      </cc:Work>
    </rdf:RDF>
  </metadata>
  <g
     id="g3034"
     transform="matrix(0.33862259,0,0,0.33862259,5.4435197,-329.0151)">
    <rect
       style="color:#000000;fill:#fdff45;fill-opacity:1;fill-rule:nonzero;stroke:none;stroke-width:2.95314026;marker:none;visibility:visible;display:inline;overflow:visible;enable-background:accumulate"
       id="rect3824"
       y="990.07007"
       x="-5.4144278"
       height="56.165775"
       width="71.962082" />
    <g
       style="font-size:60px;font-style:normal;font-variant:normal;font-weight:normal;font-stretch:normal;text-align:start;line-height:125%;letter-spacing:0px;word-spacing:0px;writing-mode:lr-tb;text-anchor:start;fill:#01009e;fill-opacity:1;stroke:none;font-family:Goodfish;-inkscape-font-specification:Goodfish"
       id="text3970">
      <path
         inkscape:connector-curvature="0"
         id="path4065"
         d="m 16.85173,1005.3222 -4.26,14.4 0.06,-0.06 8.46,0 -4.26,-14.34 z m -16.43999982,35.04 3.06000002,-2.82 11.7599998,-38.04002 -1.26,-3.06 5.16,0 12.6,40.98002 2.94,2.94 -10.98,0 2.52,-2.52 -3.84,-14.22 -11.1,0 -4.3199998,14.34 2.46,2.4 -9.00000002,0 z" />
      <path
         inkscape:connector-curvature="0"
         id="path4067"
         d="m 53.044855,1025.0622 q -0.24,-6.6 -7.5,-6.66 -5.46,0.48 -5.46,8.34 0,1.98 0.78,3.78 0.78,1.8 1.92,3.18 1.14,1.32 2.46,2.16 1.38,0.78 2.46,0.78 5.34,0.06 5.34,-5.16 l 0,-6.42 0,0 z m 4.08,12.84 2.4,2.46 -6.54,0 0,-3.9 q -1.38,2.22 -3.3,3.12 -1.92,0.84 -3.84,0.96 -2.46,0 -4.32,-0.9 -1.8,-0.96 -3,-2.58 -1.2,-1.62 -1.8,-3.84 -0.6,-2.22 -0.66,-4.86 0,-2.16 0.84,-4.62 0.9,-2.46 2.4,-4.5 1.56,-2.1 3.66,-3.48 2.1,-1.38 4.5,-1.38 1.86,0 3.48,1.26 1.62,1.26 2.1,2.94 l 0,-3.72 6.6,0 -2.52,2.28 0,20.76 z" />
    </g>
  </g>
</svg>
