<?xml version="1.0" encoding="UTF-8" standalone="no"?>
<!-- Created with Inkscape (http://www.inkscape.org/) -->

<svg
   xmlns:dc="http://purl.org/dc/elements/1.1/"
   xmlns:cc="http://creativecommons.org/ns#"
   xmlns:rdf="http://www.w3.org/1999/02/22-rdf-syntax-ns#"
   xmlns:svg="http://www.w3.org/2000/svg"
   xmlns="http://www.w3.org/2000/svg"
   xmlns:sodipodi="http://sodipodi.sourceforge.net/DTD/sodipodi-0.dtd"
   xmlns:inkscape="http://www.inkscape.org/namespaces/inkscape"
   version="1.1"
   width="32"
   height="32"
   id="svg2"
   inkscape:version="0.48.4 r9939"
   sodipodi:docname="nav-print.svg">
  <sodipodi:namedview
     pagecolor="#ffffff"
     bordercolor="#666666"
     borderopacity="1"
     objecttolerance="10"
     gridtolerance="10"
     guidetolerance="10"
     inkscape:pageopacity="0"
     inkscape:pageshadow="2"
     inkscape:window-width="1366"
     inkscape:window-height="745"
     id="namedview12"
     showgrid="false"
     inkscape:zoom="17.71875"
     inkscape:cx="16"
     inkscape:cy="16"
     inkscape:window-x="0"
     inkscape:window-y="0"
     inkscape:window-maximized="1"
     inkscape:current-layer="text3014" />
  <defs
     id="defs4" />
  <metadata
     id="metadata7">
    <rdf:RDF>
      <cc:Work
         rdf:about="">
        <dc:format>image/svg+xml</dc:format>
        <dc:type
           rdf:resource="http://purl.org/dc/dcmitype/StillImage" />
        <dc:title></dc:title>
      </cc:Work>
    </rdf:RDF>
  </metadata>
  <g
     transform="translate(0,-1020.3622)"
     id="layer1">
    <g
       id="text3003"
       style="font-size:14px;font-style:normal;font-variant:normal;font-weight:normal;font-stretch:normal;text-align:start;line-height:125%;letter-spacing:0px;word-spacing:0px;writing-mode:lr-tb;text-anchor:start;fill:#000000;fill-opacity:1;stroke:none;font-family:Albertus Medium;-inkscape-font-specification:'Albertus Medium,'">
      <g
         id="text3006"
         style="line-height:125%;fill:#000000;font-family:Albertus Medium;-inkscape-font-specification:Albertus Medium;stroke-width:1;stroke-miterlimit:4;stroke-dasharray:none">
        <g
           style="font-size:28.12788773px;font-style:normal;font-variant:normal;font-weight:normal;font-stretch:normal;line-height:125%;letter-spacing:0px;word-spacing:0px;fill:#000000;fill-opacity:1;stroke:none;font-family:FontAwesome;-inkscape-font-specification:FontAwesome"
           id="text3014">
          <path
             d="m 11.075026,1043.3978 0,-2.8142 9.849948,0 0,2.8142 -9.849948,0 m 0,-7.0356 0,-7.0357 7.035677,0 0,1.7589 c 0,0.5826 0.47271,1.0554 1.055352,1.0554 l 1.758919,0 0,4.2214 -9.849948,0 m 12.664218,0.7035 c 0,0.3848 -0.318804,0.7036 -0.703567,0.7036 -0.384763,0 -0.703568,-0.3188 -0.703568,-0.7036 0,-0.3847 0.318805,-0.7035 0.703568,-0.7035 0.384763,0 0.703567,0.3188 0.703567,0.7035 m 1.407136,0 c 0,-1.1543 -0.956413,-2.1107 -2.110703,-2.1107 l -0.703568,0 0,-2.8142 c 0,-0.5827 -0.329798,-1.3852 -0.74754,-1.8029 l -1.670974,-1.671 c -0.417742,-0.4177 -1.22025,-0.7475 -1.802892,-0.7475 l -7.387461,0 c -0.582642,0 -1.0553518,0.4727 -1.0553518,1.0553 l 0,5.9803 -0.7035678,0 c -1.1542896,0 -2.1107032,0.9564 -2.1107032,2.1107 l 0,4.5733 c 0,0.1869 0.1648988,0.3517 0.3517838,0.3517 l 2.4624872,0 0,1.759 c 0,0.5825 0.4727098,1.0553 1.0553518,1.0553 l 10.553515,0 c 0.582642,0 1.055352,-0.4728 1.055352,-1.0553 l 0,-1.759 2.462487,0 c 0.186885,0 0.351784,-0.1648 0.351784,-0.3517 l 0,-4.5733"
             id="path3019"
             inkscape:connector-curvature="0" />
        </g>
      </g>
    </g>
  </g>
</svg>
