<?xml version="1.0" encoding="UTF-8" standalone="no"?>
<!-- Created with Inkscape (http://www.inkscape.org/) -->

<svg
   xmlns:dc="http://purl.org/dc/elements/1.1/"
   xmlns:cc="http://creativecommons.org/ns#"
   xmlns:rdf="http://www.w3.org/1999/02/22-rdf-syntax-ns#"
   xmlns:svg="http://www.w3.org/2000/svg"
   xmlns="http://www.w3.org/2000/svg"
   xmlns:sodipodi="http://sodipodi.sourceforge.net/DTD/sodipodi-0.dtd"
   xmlns:inkscape="http://www.inkscape.org/namespaces/inkscape"
   width="32"
   height="32"
   id="svg2"
   version="1.1"
   inkscape:version="0.48.3.1 r9886"
   sodipodi:docname="note.svg">
  <defs
     id="defs4" />
  <sodipodi:namedview
     id="base"
     pagecolor="#ffffff"
     bordercolor="#666666"
     borderopacity="1.0"
     inkscape:pageopacity="0.0"
     inkscape:pageshadow="2"
     inkscape:zoom="10.96875"
     inkscape:cx="27.052006"
     inkscape:cy="-0.64342203"
     inkscape:document-units="px"
     inkscape:current-layer="layer1"
     showgrid="true"
     width="0px"
     height="0px"
     fit-margin-top="0"
     fit-margin-left="0"
     fit-margin-right="0"
     fit-margin-bottom="0"
     inkscape:snap-bbox="true"
     inkscape:object-paths="true"
     inkscape:snap-intersection-paths="true"
     inkscape:object-nodes="true"
     inkscape:snap-smooth-nodes="true"
     inkscape:window-width="1198"
     inkscape:window-height="1031"
     inkscape:window-x="0"
     inkscape:window-y="24"
     inkscape:window-maximized="0"
     inkscape:snap-grids="false"
     inkscape:snap-to-guides="false"
     inkscape:snap-global="false">
    <inkscape:grid
       type="xygrid"
       id="grid3968"
       empspacing="8"
       visible="true"
       enabled="true"
       snapvisiblegridlinesonly="true" />
  </sodipodi:namedview>
  <metadata
     id="metadata7">
    <rdf:RDF>
      <cc:Work
         rdf:about="">
        <dc:format>image/svg+xml</dc:format>
        <dc:type
           rdf:resource="http://purl.org/dc/dcmitype/StillImage" />
        <dc:title></dc:title>
      </cc:Work>
    </rdf:RDF>
  </metadata>
  <g
     inkscape:label="Layer 1"
     inkscape:groupmode="layer"
     id="layer1"
     transform="translate(0,-1020.3622)">
    <path
       style="fill:none;stroke:#000000;stroke-width:1px;stroke-linecap:butt;stroke-linejoin:miter;stroke-opacity:1"
       d="m 8.7785171,1045.9804 4.9735979,-4.1362 c 0,0 9.641506,-0.144 10.175347,-0.7707 0.533841,-0.6267 1.510314,-10.9367 0.442188,-11.9622 -1.068126,-1.0256 -16.235724,-0.9712 -17.6699505,-0.081 -1.4342265,0.8902 -1.0077898,10.8625 -0.2507509,11.8917 0.7570391,1.0292 3.2823601,0.5979 4.4083864,0.8412 z"
       id="path3981"
       inkscape:connector-curvature="0"
       sodipodi:nodetypes="cczzzzcc" />
    <g
       style="font-size:3px;font-style:normal;font-weight:normal;line-height:125%;letter-spacing:0px;word-spacing:0px;fill:#000000;fill-opacity:1;stroke:none;font-family:Sans"
       id="text3983">
      <path
         d="m 8.7490463,1031.5769 1.8500977,0 0,0.249 -0.7763672,0 0,1.938 -0.2973633,0 0,-1.938 -0.7763672,0 0,-0.249"
         style=""
         id="path3994" />
      <path
         d="m 12.238304,1032.7737 0,0.9902 -0.269531,0 0,-0.9814 c -1e-6,-0.1553 -0.03028,-0.2715 -0.09082,-0.3487 -0.06055,-0.077 -0.151369,-0.1157 -0.272461,-0.1157 -0.145509,0 -0.260255,0.046 -0.344239,0.1392 -0.08399,0.093 -0.125977,0.2192 -0.125976,0.3794 l 0,0.9272 -0.270996,0 0,-2.2793 0.270996,0 0,0.8936 c 0.06445,-0.099 0.140136,-0.1724 0.227051,-0.2212 0.08789,-0.049 0.188963,-0.073 0.303222,-0.073 0.188476,0 0.331054,0.059 0.427735,0.1758 0.09668,0.1162 0.145017,0.2876 0.145019,0.5142"
         style=""
         id="path3996" />
      <path
         d="m 12.778831,1032.1233 0.269532,0 0,1.6406 -0.269532,0 0,-1.6406 m 0,-0.6387 0.269532,0 0,0.3413 -0.269532,0 0,-0.3413"
         style=""
         id="path3998" />
      <path
         d="m 14.656761,1032.1716 0,0.2549 c -0.07617,-0.039 -0.155274,-0.068 -0.237305,-0.088 -0.08203,-0.02 -0.166993,-0.029 -0.254882,-0.029 -0.13379,0 -0.234376,0.021 -0.301758,0.062 -0.06641,0.041 -0.09961,0.1026 -0.09961,0.1846 0,0.062 0.02393,0.1118 0.07178,0.148 0.04785,0.035 0.144042,0.069 0.288574,0.101 l 0.09229,0.021 c 0.191405,0.041 0.327147,0.099 0.407227,0.1743 0.08105,0.074 0.12158,0.1782 0.121582,0.312 -2e-6,0.1523 -0.06055,0.2729 -0.181641,0.3618 -0.120118,0.089 -0.285645,0.1333 -0.496582,0.1333 -0.08789,0 -0.179688,-0.01 -0.27539,-0.026 -0.09473,-0.017 -0.194825,-0.042 -0.300293,-0.076 l 0,-0.2784 c 0.09961,0.052 0.197753,0.091 0.294433,0.1172 0.09668,0.025 0.192382,0.038 0.28711,0.038 0.126952,0 0.224608,-0.022 0.292968,-0.064 0.06836,-0.044 0.102538,-0.1055 0.102539,-0.1846 -10e-7,-0.073 -0.0249,-0.1294 -0.07471,-0.1685 -0.04883,-0.039 -0.156739,-0.077 -0.32373,-0.1128 l -0.09375,-0.022 c -0.166993,-0.035 -0.287598,-0.089 -0.361817,-0.1612 -0.07422,-0.073 -0.111328,-0.1733 -0.111328,-0.3003 0,-0.1543 0.05469,-0.2734 0.164063,-0.3574 0.109374,-0.084 0.264648,-0.126 0.46582,-0.126 0.09961,0 0.193358,0.01 0.28125,0.022 0.08789,0.015 0.168944,0.037 0.243164,0.066"
         style=""
         id="path4000" />
      <path
         d="m 16.130394,1032.1233 0.269531,0 0,1.6406 -0.269531,0 0,-1.6406 m 0,-0.6387 0.269531,0 0,0.3413 -0.269531,0 0,-0.3413"
         style=""
         id="path4002" />
      <path
         d="m 18.008324,1032.1716 0,0.2549 c -0.07617,-0.039 -0.155275,-0.068 -0.237305,-0.088 -0.08203,-0.02 -0.166993,-0.029 -0.254883,-0.029 -0.13379,0 -0.234375,0.021 -0.301758,0.062 -0.06641,0.041 -0.09961,0.1026 -0.09961,0.1846 0,0.062 0.02393,0.1118 0.07178,0.148 0.04785,0.035 0.144043,0.069 0.288575,0.101 l 0.09228,0.021 c 0.191405,0.041 0.327147,0.099 0.407226,0.1743 0.08105,0.074 0.121581,0.1782 0.121582,0.312 -1e-6,0.1523 -0.06055,0.2729 -0.18164,0.3618 -0.120119,0.089 -0.285646,0.1333 -0.496582,0.1333 -0.08789,0 -0.179688,-0.01 -0.275391,-0.026 -0.09473,-0.017 -0.194824,-0.042 -0.300293,-0.076 l 0,-0.2784 c 0.09961,0.052 0.197754,0.091 0.294434,0.1172 0.09668,0.025 0.192382,0.038 0.287109,0.038 0.126952,0 0.224608,-0.022 0.292969,-0.064 0.06836,-0.044 0.102538,-0.1055 0.102539,-0.1846 -10e-7,-0.073 -0.0249,-0.1294 -0.07471,-0.1685 -0.04883,-0.039 -0.156739,-0.077 -0.323731,-0.1128 l -0.09375,-0.022 c -0.166992,-0.035 -0.287598,-0.089 -0.361816,-0.1612 -0.07422,-0.073 -0.111328,-0.1733 -0.111328,-0.3003 0,-0.1543 0.05469,-0.2734 0.164062,-0.3574 0.109375,-0.084 0.264648,-0.126 0.465821,-0.126 0.09961,0 0.193358,0.01 0.28125,0.022 0.08789,0.015 0.168944,0.037 0.243164,0.066"
         style=""
         id="path4004" />
      <path
         d="m 20.227562,1032.9392 c -0.217774,0 -0.368653,0.025 -0.452637,0.075 -0.08398,0.05 -0.125977,0.1348 -0.125976,0.2549 -1e-6,0.096 0.03125,0.1719 0.09375,0.2285 0.06348,0.056 0.149413,0.083 0.257812,0.083 0.149413,0 0.269042,-0.053 0.358887,-0.1582 0.09082,-0.1064 0.136229,-0.2476 0.13623,-0.4233 l 0,-0.06 -0.268066,0 m 0.537598,-0.1113 0,0.936 -0.269532,0 0,-0.249 c -0.06152,0.1 -0.138184,0.1733 -0.22998,0.2212 -0.0918,0.047 -0.204103,0.07 -0.336914,0.07 -0.167969,0 -0.301758,-0.047 -0.401367,-0.1406 -0.09863,-0.095 -0.14795,-0.2212 -0.14795,-0.3794 0,-0.1846 0.06152,-0.3238 0.184571,-0.4175 0.124023,-0.094 0.308593,-0.1406 0.553711,-0.1406 l 0.377929,0 0,-0.026 c -1e-6,-0.124 -0.04102,-0.2197 -0.123047,-0.2871 -0.08105,-0.068 -0.195313,-0.1025 -0.342773,-0.1025 -0.09375,0 -0.185059,0.011 -0.273926,0.034 -0.08887,0.023 -0.174317,0.056 -0.256347,0.1011 l 0,-0.249 c 0.09863,-0.038 0.194335,-0.066 0.287109,-0.085 0.09277,-0.02 0.183105,-0.029 0.270996,-0.029 0.237304,0 0.41455,0.062 0.531738,0.1846 0.117186,0.1231 0.17578,0.3096 0.175782,0.5596"
         style=""
         id="path4006" />
      <path
         d="m 10.40432,1036.5237 0,0.9902 -0.269531,0 0,-0.9814 c -2e-6,-0.1553 -0.03027,-0.2715 -0.09082,-0.3487 -0.060548,-0.077 -0.1513681,-0.1157 -0.2724607,-0.1157 -0.1455087,0 -0.2602547,0.046 -0.3442383,0.1392 -0.083985,0.093 -0.1259771,0.2192 -0.1259766,0.3794 l 0,0.9272 -0.2709961,0 0,-1.6406 0.2709961,0 0,0.2549 c 0.064452,-0.099 0.1401361,-0.1724 0.2270508,-0.2212 0.08789,-0.049 0.1889639,-0.073 0.3032227,-0.073 0.1884751,0 0.3310531,0.059 0.4277341,0.1758 0.09668,0.1162 0.145018,0.2876 0.14502,0.5142"
         style=""
         id="path4008" />
      <path
         d="m 11.580589,1036.0623 c -0.144532,0 -0.258789,0.057 -0.342773,0.1699 -0.08399,0.1123 -0.125977,0.2666 -0.125977,0.4629 0,0.1963 0.0415,0.351 0.124512,0.4643 0.08398,0.1123 0.19873,0.1685 0.344238,0.1685 0.143554,0 0.257323,-0.057 0.341309,-0.1699 0.08398,-0.1133 0.125975,-0.2676 0.125976,-0.4629 -1e-6,-0.1944 -0.04199,-0.3482 -0.125976,-0.4615 -0.08399,-0.1142 -0.197755,-0.1713 -0.341309,-0.1713 m 0,-0.2286 c 0.234374,0 0.418456,0.076 0.552246,0.2286 0.133788,0.1523 0.200682,0.3632 0.200684,0.6328 -2e-6,0.2685 -0.0669,0.4795 -0.200684,0.6328 -0.13379,0.1523 -0.317872,0.2285 -0.552246,0.2285 -0.235352,0 -0.419922,-0.076 -0.553711,-0.2285 -0.132812,-0.1533 -0.199219,-0.3643 -0.199218,-0.6328 -10e-7,-0.2696 0.06641,-0.4805 0.199218,-0.6328 0.133789,-0.1524 0.318359,-0.2286 0.553711,-0.2286"
         style=""
         id="path4010" />
      <path
         d="m 13.045433,1035.4075 0,0.4658 0.555176,0 0,0.2095 -0.555176,0 0,0.8906 c -10e-7,0.1338 0.01807,0.2197 0.0542,0.2578 0.03711,0.038 0.111816,0.057 0.224121,0.057 l 0.276856,0 0,0.2256 -0.276856,0 c -0.208008,0 -0.351563,-0.039 -0.430664,-0.1157 -0.0791,-0.078 -0.118652,-0.2197 -0.118652,-0.4248 l 0,-0.8906 -0.197754,0 0,-0.2095 0.197754,0 0,-0.4658 0.270996,0"
         style=""
         id="path4012" />
      <path
         d="m 15.359886,1036.6262 0,0.1319 -1.239258,0 c 0.01172,0.1855 0.06738,0.3271 0.166993,0.4248 0.100585,0.097 0.240233,0.145 0.418945,0.145 0.103514,0 0.203612,-0.013 0.300293,-0.038 0.09765,-0.025 0.194334,-0.063 0.290039,-0.1143 l 0,0.2549 c -0.09668,0.041 -0.195802,0.072 -0.297363,0.094 -0.101564,0.021 -0.204591,0.032 -0.309082,0.032 -0.26172,0 -0.469239,-0.076 -0.622559,-0.2285 -0.152344,-0.1524 -0.228516,-0.3584 -0.228516,-0.6182 0,-0.2685 0.07227,-0.4814 0.216797,-0.6387 0.145508,-0.1582 0.341308,-0.2373 0.587403,-0.2373 0.220702,0 0.395018,0.071 0.522949,0.2139 0.128904,0.1416 0.193357,0.3345 0.193359,0.5786 m -0.269531,-0.079 c -0.002,-0.1474 -0.04346,-0.2651 -0.124512,-0.353 -0.08008,-0.088 -0.186524,-0.1318 -0.319336,-0.1318 -0.150391,0 -0.270997,0.042 -0.361816,0.1274 -0.08984,0.085 -0.141602,0.2046 -0.155274,0.3589 l 0.960938,-0"
         style=""
         id="path4014" />
      <path
         d="m 15.840355,1037.1418 0.309082,0 0,0.3721 -0.309082,0 0,-0.3721"
         style=""
         id="path4016" />
    </g>
  </g>
</svg>
