<?xml version="1.0" encoding="UTF-8" standalone="no"?>
<!-- Created with Inkscape (http://www.inkscape.org/) -->

<svg
   xmlns:dc="http://purl.org/dc/elements/1.1/"
   xmlns:cc="http://creativecommons.org/ns#"
   xmlns:rdf="http://www.w3.org/1999/02/22-rdf-syntax-ns#"
   xmlns:svg="http://www.w3.org/2000/svg"
   xmlns="http://www.w3.org/2000/svg"
   version="1.1"
   width="32"
   height="32"
   id="svg2">
  <defs
     id="defs4" />
  <metadata
     id="metadata7">
    <rdf:RDF>
      <cc:Work
         rdf:about="">
        <dc:format>image/svg+xml</dc:format>
        <dc:type
           rdf:resource="http://purl.org/dc/dcmitype/StillImage" />
        <dc:title></dc:title>
      </cc:Work>
    </rdf:RDF>
  </metadata>
  <g
     transform="translate(0,-1020.3622)"
     id="layer1">
    <g
       transform="matrix(0.33862259,0,0,0.33862259,5.4435197,691.3471)"
       id="g3034">
      <g
         id="text3970"
         style="font-size:60px;font-style:normal;font-variant:normal;font-weight:normal;font-stretch:normal;text-align:start;line-height:125%;letter-spacing:0px;word-spacing:0px;writing-mode:lr-tb;text-anchor:start;fill:#01009e;fill-opacity:1;stroke:none;font-family:Goodfish;-inkscape-font-specification:Goodfish">
        <path
           d="m 21.04,1005.3222 -4.26,14.4 0.06,-0.06 8.46,0 -4.26,-14.34 z m -16.44,35.04 3.06,-2.82 11.76,-38.04002 -1.26,-3.06 5.16,0 12.6,40.98002 2.94,2.94 -10.98,0 2.52,-2.52 -3.84,-14.22 -11.1,0 -4.32,14.34 2.46,2.4 -9,0 z"
           id="path4065" />
      </g>
      <path
         d="m 42,993.36218 3,0 5,1 5,-1 3,0 0,2 -6,3 0,41.00002 6,3 0,2 -3,0 -5,-1 -5,1 -3,0 0,-2 6,-3 0,-41.00002 -6,-3 0,-2"
         id="path3974"
         style="fill:#000000;fill-opacity:1;stroke:none" />
    </g>
  </g>
</svg>
