<?xml version="1.0" encoding="UTF-8" standalone="no"?>
<!-- Created with Inkscape (http://www.inkscape.org/) -->

<svg
   xmlns:dc="http://purl.org/dc/elements/1.1/"
   xmlns:cc="http://creativecommons.org/ns#"
   xmlns:rdf="http://www.w3.org/1999/02/22-rdf-syntax-ns#"
   xmlns:svg="http://www.w3.org/2000/svg"
   xmlns="http://www.w3.org/2000/svg"
   xmlns:sodipodi="http://sodipodi.sourceforge.net/DTD/sodipodi-0.dtd"
   xmlns:inkscape="http://www.inkscape.org/namespaces/inkscape"
   width="32"
   height="32"
   id="svg2"
   version="1.1"
   inkscape:version="0.48+devel r"
   sodipodi:docname="type-math.svg">
  <defs
     id="defs4" />
  <sodipodi:namedview
     id="base"
     pagecolor="#ffffff"
     bordercolor="#666666"
     borderopacity="1.0"
     inkscape:pageopacity="0.0"
     inkscape:pageshadow="2"
     inkscape:zoom="7.7560776"
     inkscape:cx="14.769231"
     inkscape:cy="33.839034"
     inkscape:document-units="px"
     inkscape:current-layer="text3970"
     showgrid="true"
     width="0px"
     height="0px"
     fit-margin-top="0"
     fit-margin-left="0"
     fit-margin-right="0"
     fit-margin-bottom="0"
     inkscape:snap-bbox="true"
     inkscape:object-paths="true"
     inkscape:snap-intersection-paths="true"
     inkscape:object-nodes="true"
     inkscape:snap-smooth-nodes="true"
     inkscape:window-width="1198"
     inkscape:window-height="1031"
     inkscape:window-x="0"
     inkscape:window-y="24"
     inkscape:window-maximized="0"
     inkscape:snap-grids="false"
     inkscape:snap-global="false">
    <inkscape:grid
       type="xygrid"
       id="grid3968"
       empspacing="8"
       visible="true"
       enabled="true"
       snapvisiblegridlinesonly="true" />
  </sodipodi:namedview>
  <metadata
     id="metadata7">
    <rdf:RDF>
      <cc:Work
         rdf:about="">
        <dc:format>image/svg+xml</dc:format>
        <dc:type
           rdf:resource="http://purl.org/dc/dcmitype/StillImage" />
        <dc:title></dc:title>
      </cc:Work>
    </rdf:RDF>
  </metadata>
  <g
     inkscape:label="Layer 1"
     inkscape:groupmode="layer"
     id="layer1"
     transform="translate(0,-1020.3622)">
    <g
       id="g3034"
       transform="matrix(0.33862259,0,0,0.33862259,5.4435197,691.3471)">
      <g
         style="font-size:51.67995453px;font-style:normal;font-variant:normal;font-weight:normal;font-stretch:normal;text-align:start;line-height:125%;letter-spacing:0px;word-spacing:0px;writing-mode:lr-tb;text-anchor:start;fill:#01009e;fill-opacity:1;stroke:none;font-family:Liberation Serif;-inkscape-font-specification:Liberation Serif"
         id="text3970">
        <path
           d="m -1.5025309,1044.6878 q -0.428984,0 -0.9084367,-0.101 -0.4794527,-0.076 -0.9084367,-0.2018 -0.4542183,-0.1262 -0.7822649,-0.2776 -0.353281,-0.1262 -0.5046871,-0.2524 l 0,-0.2018 q 0.1009374,-0.3029 0.2018749,-0.7571 0.1009374,-0.4542 0.2018748,-0.9336 0.1009374,-0.4543 0.2018748,-0.8832 0.075703,-0.429 0.1261718,-0.7318 l 0.504687,0 q 0.7065619,0.7065 1.5140612,1.2112 0.8327336,0.5299 1.69070163,0.5299 0.63085882,0 1.18601457,-0.4794 0.5551558,-0.4795 0.9841398,-1.3879 0.428984,-0.9085 0.6813275,-2.2206 0.2523435,-1.3122 0.2523435,-2.9777 0,-1.4636 -0.025234,-3.5076 -0.025234,-2.0187 -0.050469,-4.2898 -0.025234,-2.2963 -0.050469,-4.6684 -0.025234,-2.372 -0.025234,-4.4917 0,-1.943 0.025234,-3.9365 0.050469,-2.0188 0.1009374,-3.8357 0.050469,-1.8421 0.1009374,-3.3561 0.075703,-1.5393 0.1261717,-2.5235 0.1009375,-1.5897 0.5551558,-2.9776 0.4542184,-1.4131 1.1355459,-2.57392 0.6813275,-1.16078 1.5392955,-2.06922 0.857968,-0.93367 1.7664047,-1.56453 0.933671,-0.63085 1.8168734,-0.9589 0.9084367,-0.32805 1.6654677,-0.32805 0.428984,0 0.933671,0.10094 0.504687,0.0757 0.984139,0.20187 0.479453,0.10094 0.832734,0.25235 0.378515,0.1514 0.504687,0.25234 l 0,0.22711 q -0.100937,0.30281 -0.227109,0.75703 -0.126172,0.42899 -0.252344,0.90844 -0.100937,0.47945 -0.227109,0.90844 -0.100937,0.42898 -0.151406,0.73179 l -0.529921,0 q -0.706562,-0.70656 -1.539296,-1.23648 -0.807499,-0.52992 -1.665467,-0.52992 -0.6056246,0 -1.1860147,0.47945 -0.5551558,0.47945 -0.9841398,1.41312 -0.428984,0.90844 -0.6813275,2.22064 -0.2523435,1.3122 -0.2523435,2.9776 0,1.5141 0,3.4571 0.025234,1.9179 0.050469,3.8609 0.025234,1.9178 0.025234,3.6085 0.025234,1.6655 0.025234,2.6496 0,1.0599 -0.025234,2.6244 -0.025234,1.5393 -0.075703,3.2805 -0.025234,1.7411 -0.075703,3.5328 -0.025234,1.7664 -0.075703,3.3309 -0.050469,1.5393 -0.1009374,2.7001 -0.025234,1.1608 -0.050469,1.6402 -0.1261718,2.4225 -1.0346085,4.3403 -0.8832024,1.9431 -2.14492,3.2805 -1.2364833,1.3374 -2.649607,2.044 -1.4131238,0.7318 -2.5486697,0.7318 z"
           style=""
           id="path3348" />
        <path
           d="m 33.194705,1016.0215 0,0.9842 -14.055535,20.5407 11.229287,0 q 1.034609,0 2.245858,-0.025 1.236483,0 2.472966,-0.025 1.261718,-0.025 2.447732,-0.076 1.211249,-0.051 2.170155,-0.101 0.984139,-0.025 1.690701,-0.076 0.706562,-0.05 0.958906,-0.1009 l 1.438358,-5.7534 1.665467,0 -0.479453,10.447 -30.432629,0 0,-1.8674 14.585456,-21.2725 -13.44991,-19.70805 0,-1.99351 27.88396,0 0,8.85726 -1.665468,0 -1.059842,-6.23289 q -0.8075,-0.10094 -2.069217,-0.1514 -1.261718,-0.0757 -2.599139,-0.10094 -1.312186,-0.0505 -2.472966,-0.0505 -1.160781,0 -1.741171,0 l -10.194678,-0.0505 11.431162,16.75557 z"
           style=""
           id="path3350" />
      </g>
      <path
         sodipodi:nodetypes="ccccccccccccccccccc"
         inkscape:connector-curvature="0"
         id="path3974"
         d="m 47.90628,993.36218 3,0 5,1 5,-1 3,0 0,2 -6,3 0,41.00002 6,3 0,2 -3,0 -5,-1 -5,1 -3,0 0,-2 6,-3 0,-41.00002 -6,-3 0,-2"
         style="fill:#000000;fill-opacity:1;stroke:none" />
    </g>
  </g>
</svg>
