<?xml version="1.0" encoding="UTF-8" standalone="no"?>
<!-- Created with Inkscape (http://www.inkscape.org/) -->

<svg
   width="20"
   height="20"
   viewBox="0 0 5.2916668 5.2916668"
   version="1.1"
   id="svg5"
   xml:space="preserve"
   inkscape:version="1.2 (dc2aeda, 2022-05-15)"
   sodipodi:docname="icn-nav-print.svg"
   xmlns:inkscape="http://www.inkscape.org/namespaces/inkscape"
   xmlns:sodipodi="http://sodipodi.sourceforge.net/DTD/sodipodi-0.dtd"
   xmlns="http://www.w3.org/2000/svg"
   xmlns:svg="http://www.w3.org/2000/svg"><sodipodi:namedview
     id="namedview7"
     pagecolor="#ffffff"
     bordercolor="#666666"
     borderopacity="1.0"
     inkscape:showpageshadow="2"
     inkscape:pageopacity="0.0"
     inkscape:pagecheckerboard="0"
     inkscape:deskcolor="#d1d1d1"
     inkscape:document-units="px"
     showgrid="false"
     inkscape:zoom="4.7572176"
     inkscape:cx="22.071725"
     inkscape:cy="52.551727"
     inkscape:window-width="1263"
     inkscape:window-height="964"
     inkscape:window-x="0"
     inkscape:window-y="25"
     inkscape:window-maximized="0"
     inkscape:current-layer="layer1" /><defs
     id="defs2" /><g
     inkscape:label="Layer 1"
     inkscape:groupmode="layer"
     id="layer1"><g
       id="g1353"
       transform="translate(0,10.583333)" /><g
       id="g1529"
       transform="matrix(0.53004816,0,0,0.53004816,-1.3561283,-7.1348663)"
       style="stroke-width:1.88662"><path
         id="rect638"
         style="opacity:1;fill:#000000;fill-opacity:1;stroke-width:1.59734;stroke-linecap:round;stroke-linejoin:round"
         d="m 3.8933024,7.0631348 c -0.7394861,0 -1.3348022,0.5958329 -1.3348022,1.335319 V 8.9544922 9.5384359 10.873238 H 3.8933024 11.207068 12.54187 V 9.5384359 8.9544922 8.3984538 c 0,-0.7394861 -0.595316,-1.335319 -1.334802,-1.335319 z"
         transform="translate(0,10.583333)" /><circle
         style="opacity:1;fill:#ffffff;fill-opacity:1;stroke-width:1.59734;stroke-linecap:round;stroke-linejoin:round"
         id="path1349"
         cx="11.402337"
         cy="8.3703947"
         r="0.36151209"
         transform="translate(0,10.583333)" /><g
         id="rect1357"
         style="opacity:1;stroke-width:1.88662"
         transform="translate(0,10.583333)"><path
           style="color:#000000;fill:#ffffff;fill-opacity:1;stroke-width:1.59734;stroke-linecap:round;stroke-linejoin:round"
           d="m 9.1117314,3.8932071 c 0.2362193,0.00786 1.4833526,1.2470024 1.4833526,1.4833527 V 11.55889 c 0,0.23635 -0.190275,0.426625 -0.426625,0.426625 H 4.9316218 c -0.2363503,0 -0.426625,-0.190275 -0.426625,-0.426625 V 4.180789 C 5.0564269,3.176358 7.9798614,3.8555577 9.1117314,3.8932071 Z"
           id="path1517"
           sodipodi:nodetypes="cssssscc" /><path
           style="color:#000000;fill:#000000;stroke-width:1.88662;stroke-linecap:round;stroke-linejoin:round"
           d="m 4.9316406,3.3300781 c -0.463554,0 -0.8496093,0.3880085 -0.8496094,0.8515625 v 7.3769534 c 0,0.463554 0.3860554,0.849609 0.8496094,0.849609 h 5.2363284 c 0.463554,0 0.849609,-0.386055 0.849609,-0.849609 V 5.8398107 C 11.025665,4.4663269 10.360933,3.3439824 8.6345772,3.3300781 Z m 0,0.8476563 h 3.6612237 c 0.027224,1.2346039 0.024629,1.25181 1.5790047,1.2866599 v 6.0942037 c 0,0.0091 0.0052,0.0039 -0.0039,0.0039 H 4.9316406 c -0.00915,0 -0.00391,0.0052 -0.00391,-0.0039 V 4.1816406 c 0,-0.00915 -0.00524,-0.00391 0.00391,-0.00391 z"
           id="path1519"
           sodipodi:nodetypes="scssssccscccssssscc" /></g><rect
         style="opacity:1;fill:#000000;fill-opacity:1;stroke-width:1.59734;stroke-linecap:round;stroke-linejoin:round"
         id="rect1355"
         width="7.2024326"
         height="2.3915415"
         x="3.6151206"
         y="18.314131" /></g></g></svg>
