<?xml version="1.0" encoding="UTF-8" standalone="no"?>
<!-- Created with Inkscape (http://www.inkscape.org/) -->

<svg
   width="20"
   height="20"
   viewBox="0 0 5.2916665 5.2916666"
   version="1.1"
   id="svg5834"
   xml:space="preserve"
   inkscape:version="1.2 (dc2aeda, 2022-05-15)"
   sodipodi:docname="icn-nav-find.svg"
   xmlns:inkscape="http://www.inkscape.org/namespaces/inkscape"
   xmlns:sodipodi="http://sodipodi.sourceforge.net/DTD/sodipodi-0.dtd"
   xmlns="http://www.w3.org/2000/svg"
   xmlns:svg="http://www.w3.org/2000/svg"><sodipodi:namedview
     id="namedview5836"
     pagecolor="#ffffff"
     bordercolor="#666666"
     borderopacity="1.0"
     inkscape:showpageshadow="2"
     inkscape:pageopacity="0.0"
     inkscape:pagecheckerboard="0"
     inkscape:deskcolor="#d1d1d1"
     inkscape:document-units="mm"
     showgrid="false"
     inkscape:zoom="6.7277216"
     inkscape:cx="16.498899"
     inkscape:cy="31.957327"
     inkscape:window-width="1305"
     inkscape:window-height="964"
     inkscape:window-x="0"
     inkscape:window-y="25"
     inkscape:window-maximized="0"
     inkscape:current-layer="layer1" /><defs
     id="defs5831" /><g
     inkscape:label="Layer 1"
     inkscape:groupmode="layer"
     id="layer1"><path
       id="path9612"
       style="opacity:1;fill:#000000;fill-opacity:1;stroke:none;stroke-width:0.846667;stroke-linecap:round;stroke-linejoin:round;stroke-opacity:1"
       d="M 2.2922563,5.7836411e-8 A 2.2161981,2.2161981 0 0 0 0.07595865,2.2162986 2.2161981,2.2161981 0 0 0 2.2922563,4.4321541 2.2161981,2.2161981 0 0 0 3.4841147,4.0822587 c 0.0054,0.00681 0.010976,0.013797 0.01683,0.020373 l 0.9230149,1.036842 C 4.5907774,5.3268537 4.876135,5.3434955 5.0635154,5.1766781 5.250895,5.0098606 5.2675368,4.7245029 5.1007193,4.5371225 L 4.1772614,3.5002814 c -0.01507,-0.016928 -0.030991,-0.032375 -0.047833,-0.046505 A 2.2161981,2.2161981 0 0 0 4.5081117,2.2162986 2.2161981,2.2161981 0 0 0 2.2922563,5.7836411e-8 Z m 0,0.833991402163589 A 1.3819638,1.3819638 0 0 1 3.6741212,2.2162986 1.3819638,1.3819638 0 0 1 2.2922563,3.5981635 1.3819638,1.3819638 0 0 1 0.90994915,2.2162986 1.3819638,1.3819638 0 0 1 2.2922563,0.83399146 Z" /></g></svg>
