<?xml version="1.0" encoding="UTF-8" standalone="no"?>
<!-- Created with Inkscape (http://www.inkscape.org/) -->
<svg id="svg1307" xmlns:rdf="http://www.w3.org/1999/02/22-rdf-syntax-ns#" xmlns="http://www.w3.org/2000/svg" height="48px" width="48px" xmlns:cc="http://creativecommons.org/ns#" xmlns:dc="http://purl.org/dc/elements/1.1/">
 <metadata id="metadata1312">
  <rdf:RDF>
   <cc:Work rdf:about="">
    <dc:format>image/svg+xml</dc:format>
    <dc:type rdf:resource="http://purl.org/dc/dcmitype/StillImage"/>
    <cc:license rdf:resource=""/>
    <dc:title>Insert Image</dc:title>
    <dc:date>December 2008</dc:date>
    <dc:creator>
     <cc:Agent>
      <dc:title>Vinicius Depizzol &lt;vdepizzol@gmail.com&gt;</dc:title>
     </cc:Agent>
    </dc:creator>
    <dc:subject>
     <rdf:Bag>
      <rdf:li>image</rdf:li>
      <rdf:li>picture</rdf:li>
      <rdf:li>photo</rdf:li>
      <rdf:li>insert</rdf:li>
     </rdf:Bag>
    </dc:subject>
   </cc:Work>
  </rdf:RDF>
 </metadata>
 <g id="layer1">
  <rect id="rect2385" style="fill-opacity:0" rx="0" ry="0" height="48" width="48" y="0" x="0"/>
  <rect id="rect6561" style="stroke-linejoin:round;fill-rule:evenodd;stroke:#fff;stroke-linecap:round;stroke-width:8" rx="3" ry="3" height="34" width="40" y="4" x="4"/>
  <path id="path3165" style="stroke-linejoin:round;stroke:#fff;stroke-linecap:round;stroke-width:13.713;fill:#fff" d="m13.836 26.522h15.078l-7.539 13.059-7.539-13.059z" transform="matrix(1 0 0 .76578 2.625 11.69)"/>
  <rect id="rect1315" style="fill-rule:evenodd" rx="3.3" ry="3.3" height="34" width="40" y="4" x="4"/>
  <rect id="rect6622" style="fill:#fff;fill-rule:evenodd" rx="1.5" ry="1.5" height="26" width="32" y="8" x="8"/>
  <path id="path2188" style="fill-rule:evenodd" d="m4.062 30.062l8.938-11.062c1.643-1.798 2.791-0.992 4 0l8 9c3.093 3.109-1.008 6.093-3 3l-7-8-9.5116 11.946"/>
  <path id="path3962" style="fill-rule:evenodd" d="m19.829 22.122l10.24-9.202c1.643-1.798 2.791-0.992 4 0l7.814 6.148c3.093 3.108-1.008 6.093-3 3l-6.814-5.148-11.186 10.148"/>
  <path id="path3187" style="stroke-linejoin:round;stroke:#fff;stroke-linecap:round;stroke-width:10.285;fill:#fff" transform="matrix(1 0 0 .76578 2.625 11.69)" d="m13.836 26.522h15.078l-7.539 13.059-7.539-13.059z"/>
  <path id="path3159" style="stroke-linejoin:round;stroke:#000;stroke-linecap:round;stroke-width:4.571;fill:#fff" transform="matrix(1 0 0 .76578 2.625 11.69)" d="m13.836 26.522h15.078l-7.539 13.059-7.539-13.059z"/>
 </g>
</svg>
