/* XPM */
static char *eln[] = {
/* columns rows colors chars-per-pixel */
"32 45 89 1 ",
"  c black",
". c gray22",
"X c #3C3C3C",
"o c #4A4628",
"O c #4B472A",
"+ c #4C482B",
"@ c #4F4A2E",
"# c #504B2F",
"$ c #524D31",
"% c #534E32",
"& c #545035",
"* c #565237",
"= c #575338",
"- c #58533A",
"; c #58543A",
": c #59553B",
"> c #59553C",
", c #5B573E",
"< c #4C4C4C",
"1 c #565656",
"2 c #91884A",
"3 c #948A4D",
"4 c #988E50",
"5 c #9C9254",
"6 c #9D9456",
"7 c #A09659",
"8 c #A2985B",
"9 c #A49A5E",
"0 c #A69C60",
"q c #A79E62",
"w c #A99F64",
"e c #AAA065",
"r c #ACA267",
"t c #ADA469",
"y c #AFA66B",
"u c #B1A76E",
"i c #B2A970",
"p c #B4AB72",
"a c #B5AC73",
"s c #B7AE76",
"d c #B8AF78",
"f c #BAB17B",
"g c #BBB27C",
"h c #BCB47E",
"j c #BDB57F",
"k c #BFB682",
"l c #B8B7AB",
"z c #BCBBB0",
"x c #C0B884",
"c c #C1B986",
"v c #C3BB88",
"b c #C4BC8A",
"n c #C5BD8C",
"m c #C8C090",
"M c #CAC294",
"N c #CDC699",
"B c #CEC79B",
"V c #CFC89D",
"C c #D0C99F",
"Z c #D2CBA2",
"A c #D2CCA3",
"S c #D3CDA4",
"D c #D4CDA6",
"F c #DDD7B7",
"G c #D3D0B8",
"H c #D7D3BB",
"J c #D8D4BB",
"K c #D9D5BD",
"L c #DBD7BF",
"P c #DFDABB",
"I c #E0DBBD",
"U c #DCD8C0",
"Y c #DCD8C1",
"T c #DDD9C2",
"R c #DEDBC4",
"E c #DFDCC4",
"W c #D2D2D2",
"Q c #D7D7D7",
"! c #E6E3CE",
"~ c #E9E5D0",
"^ c #EDEAD7",
"/ c #F2F0E3",
"( c #F3F1E5",
") c #F4F2E6",
"_ c #F8F7EF",
"` c #F1F1F1",
"' c #F9F7F1",
"] c #F9F8F3",
"[ c #FEFEFD",
/* pixels */
"LTTRRETTEETERTLTTTLEETETTLTTJTLl",
"  w709009000r9t889r9q6669606688+",
"  0te0t900we896trq95e9e60048604@",
" 609009eee07q9r9898e089e6800670O",
"  e08000e86t0e0099qe68080085000+",
"Uee0e00ew0tq0e00qre9959e89e8088O",
"  0e8tSSBZVVZMCZCNBBCCBBCAf9980O",
"L0et6g[[[[[[[[[[[[[[[[[[[[F6ee8@",
"  reti[[[[[[[[[[[[[[[[[[[[I7999#",
"  eewg[[[[[[[[[[[[[[[[[[[[I6e99#",
" 0rwwd[[[[[[[[[[ [[[[[ [[[I979r&",
"  tuwg[[[  X[  [ [X[X[ [[[I9r99#",
"Gsettg[[[  X[. [ [X[X[ [[[E8err#",
"  pt0a[[[[[[[[[[[[[[[[[[[[I5er9+",
" 0ettg[[[[[[[[[[[[[[[[[[[[Ier9r#",
"  iuak[[[[[[[[[[[[[[[[[[[[Ierer#",
"  tieh[[[[[[[[[[[[[[[[[[[[Ierre#",
" 4sitdSCSDSZSSASDSASACCSZCvrrrt#",
"  iuuetdduipraauiitiirerediirie&",
" uusdsiruuiuuiuiitdtuiattytrirr#",
"  ddiidaiisiairaaiaasiuisiarirr&",
"Epauppysuddiuudauttitusu9iririr&",
"  puaadisaifsudssaspsuataiurpya%",
"Etiuaidssaidassydpifiauuiasuiir&",
" 3afaaiaassiaaifisarsdayauraiii#",
"  iupfpdsasisiaisifdpiapauuurpy#",
" dpfaidpdsfdrfsfssaapfpdaraiayu&",
"  gprdpfjfasdfidsfpsddsfadfaard&",
"Jxidfdarjufjfffdfjffifadfiidiaa&",
"  jdddxxibbxxbbbxkcxmbvpaiiuary&",
"Jrjahddfj^]]]]]]]]]____mddadrud&",
"  fdajddx/[[[[[[[[[[[[[madfeaia=",
"  kjgfdfx/[[[[[[[``[[[[bxdifrar&",
" 9fsffgxj/[[[[  [<<[[[[mdjdpuud&",
"  jjddffx/[ [`  [11W Q[bdfrfdae&",
"Lfvffxgdc/[[[[[[[[[[[[[bfdfiuid&",
"  ffggffk([[[[[[[[[[[[[nfdsaasa=",
"!ccfggfkj~(/))((/((((((cafddpsy:",
"  gfxdfxjfjddfpssssddsasjfadsaa&",
"Lskkpffxjkkjkfxjkfjhjdffffaffid&",
" 9kjxxjcjkjfgxfjfjfjjfddjdfaafa&",
" 2kkjjjkjfjddfidaddddipajjfkfff&",
"Ixkxcxdxjkkjxfxjjjjjjfhffffffdd=",
"  cjjkccjkjfdjfjfjfjjfddjsddddf&",
"z:>::,,-::1>:->>:::::&::=::&&:&&"
};
