/* XPM */
static char * eln_xpm[] = {
"32 32 384 2",
"  	c None",
". 	c #B9B6A2",
"+ 	c #CBC6AE",
"@ 	c #D4D0B3",
"# 	c #D6D2B4",
"$ 	c #D5D0B3",
"% 	c #D6D2B5",
"& 	c #D4CFB2",
"* 	c #D4D0B2",
"= 	c #D7D3B5",
"- 	c #D3CEB1",
"; 	c #D4CFB3",
"> 	c #D2CDAF",
", 	c #CFCAAB",
"' 	c #D6D1B3",
") 	c #AEAC9B",
"! 	c #000000",
"~ 	c #5B5532",
"{ 	c #A69C5F",
"] 	c #A59A5D",
"^ 	c #A89E61",
"/ 	c #A19759",
"( 	c #A3985A",
"_ 	c #A59B5E",
": 	c #A69B5E",
"< 	c #A2975A",
"[ 	c #A09758",
"} 	c #A79D60",
"| 	c #A49A5C",
"1 	c #A2985A",
"2 	c #9F9556",
"3 	c #9E9556",
"4 	c #9C9252",
"5 	c #9A9151",
"6 	c #A39858",
"7 	c #554F2D",
"8 	c #17160D",
"9 	c #AAA061",
"0 	c #A49A5E",
"a 	c #A69C60",
"b 	c #AAA065",
"c 	c #A2985B",
"d 	c #A49B5F",
"e 	c #ACA267",
"f 	c #A2985C",
"g 	c #A49A5D",
"h 	c #A89E62",
"i 	c #A89D62",
"j 	c #9E9557",
"k 	c #A3995C",
"l 	c #A79D61",
"m 	c #9D9456",
"n 	c #A79D5F",
"o 	c #595432",
"p 	c #5D5B4F",
"q 	c #80794B",
"r 	c #A59B5F",
"s 	c #A69B5F",
"t 	c #A1985A",
"u 	c #A89F63",
"v 	c #A39A5D",
"w 	c #9F9658",
"x 	c #9D9355",
"y 	c #A3985B",
"z 	c #A3995D",
"A 	c #9F9558",
"B 	c #A99F61",
"C 	c #0E0E0D",
"D 	c #6A643D",
"E 	c #A99F64",
"F 	c #C5BE8D",
"G 	c #CBC496",
"H 	c #C8C091",
"I 	c #C8C191",
"J 	c #C8C092",
"K 	c #C4BC8A",
"L 	c #C8C192",
"M 	c #C9C294",
"N 	c #C6BE8D",
"O 	c #C6BF8E",
"P 	c #C7C090",
"Q 	c #C7BF90",
"R 	c #C6BE8E",
"S 	c #C6BF90",
"T 	c #A9A065",
"U 	c #A89D5F",
"V 	c #585332",
"W 	c #BAB69C",
"X 	c #9F955B",
"Y 	c #ADA469",
"Z 	c #F4F3EA",
"` 	c #FFFFFF",
" .	c #FCFBF8",
"..	c #B2A975",
"+.	c #ABA063",
"@.	c #5C5635",
"#.	c #605A39",
"$.	c #ACA367",
"%.	c #F1EFE4",
"&.	c #FEFEFD",
"*.	c #FFFFFE",
"=.	c #FAF9F3",
"-.	c #B2AA76",
";.	c #A99F63",
">.	c #A89D60",
",.	c #5C5636",
"'.	c #18170E",
").	c #B2A769",
"!.	c #ABA165",
"~.	c #FAFAF9",
"{.	c #F7F7F6",
"].	c #FBFBFA",
"^.	c #F9F9F8",
"/.	c #6D6D6C",
"(.	c #EAEAEA",
"_.	c #F4F4F3",
":.	c #5D5D5C",
"<.	c #B7AF7C",
"[.	c #A09659",
"}.	c #ACA164",
"|.	c #615C3C",
"1.	c #646255",
"2.	c #867E50",
"3.	c #B0A66C",
"4.	c #AEA468",
"5.	c #F2F0E5",
"6.	c #60605F",
"7.	c #717171",
"8.	c #424242",
"9.	c #797978",
"0.	c #F3F3F2",
"a.	c #4E4E4E",
"b.	c #5A5A5A",
"c.	c #575757",
"d.	c #F9F9F4",
"e.	c #B6AE7B",
"f.	c #5D5736",
"g.	c #121210",
"h.	c #716C48",
"i.	c #A89E60",
"j.	c #F0EFE3",
"k.	c #F0F0EF",
"l.	c #E5E5E4",
"m.	c #F2F2F1",
"n.	c #F1F1F0",
"o.	c #E7E7E6",
"p.	c #FDFDFC",
"q.	c #EFEFEE",
"r.	c #B1A874",
"s.	c #AEA467",
"t.	c #595433",
"u.	c #14130C",
"v.	c #A69D62",
"w.	c #AEA56A",
"x.	c #B1A86D",
"y.	c #F9F9F3",
"z.	c #BCB381",
"A.	c #ACA265",
"B.	c #5E5838",
"C.	c #625D3C",
"D.	c #B2A970",
"E.	c #AFA66B",
"F.	c #F5F3EB",
"G.	c #FDFCF9",
"H.	c #BBB381",
"I.	c #B0A569",
"J.	c #5D5837",
"K.	c #16140B",
"L.	c #B2A86B",
"M.	c #AFA66C",
"N.	c #CBC597",
"O.	c #CEC69A",
"P.	c #D1CAA0",
"Q.	c #D0CA9F",
"R.	c #CFC89D",
"S.	c #CFC99E",
"T.	c #CFC99D",
"U.	c #D0C99E",
"V.	c #CDC599",
"W.	c #CEC79B",
"X.	c #CFC89C",
"Y.	c #CBC497",
"Z.	c #B3AA71",
"`.	c #B1A76B",
" +	c #0B0B07",
".+	c #91895B",
"++	c #B4AA72",
"@+	c #ADA468",
"#+	c #B1A76D",
"$+	c #AFA56B",
"%+	c #B0A76C",
"&+	c #B1A86E",
"*+	c #ADA368",
"=+	c #ACA266",
"-+	c #B2A96F",
";+	c #B2A86C",
">+	c #5F5A3A",
",+	c #736D4B",
"'+	c #B8AF78",
")+	c #B7AE77",
"!+	c #B4AB71",
"~+	c #B1A86F",
"{+	c #B7AE75",
"]+	c #B3A970",
"^+	c #B3AA72",
"/+	c #B6AD74",
"(+	c #B1A76E",
"_+	c #B7AE76",
":+	c #AAA791",
"<+	c #A49C66",
"[+	c #B1A66D",
"}+	c #B5AC73",
"|+	c #B5AC74",
"1+	c #B0A66D",
"2+	c #B9B079",
"3+	c #B4AB72",
"4+	c #B0A76D",
"5+	c #A79D62",
"6+	c #B2A86F",
"7+	c #AEA469",
"8+	c #B5AC70",
"9+	c #A7A58E",
"0+	c #9B935F",
"a+	c #B6AD75",
"b+	c #B4AA71",
"c+	c #B4AB6F",
"d+	c #0B0A02",
"e+	c #BAB17B",
"f+	c #B2A971",
"g+	c #B6AD76",
"h+	c #B3AA70",
"i+	c #B8AF77",
"j+	c #AFA56C",
"k+	c #B7AE73",
"l+	c #5E5938",
"m+	c #0D0D09",
"n+	c #989061",
"o+	c #B6AC75",
"p+	c #B5AB73",
"q+	c #B4AB73",
"r+	c #AEA46A",
"s+	c #B6AC71",
"t+	c #605B3B",
"u+	c #746E4D",
"v+	c #BBB27C",
"w+	c #BCB37D",
"x+	c #B9B078",
"y+	c #B8AF79",
"z+	c #B5AB70",
"A+	c #635E3F",
"B+	c #9E9B86",
"C+	c #A59D6B",
"D+	c #BAB17A",
"E+	c #BCB37C",
"F+	c #BBB27B",
"G+	c #B9B179",
"H+	c #B8AE73",
"I+	c #625D3E",
"J+	c #ACA88F",
"K+	c #A9A16C",
"L+	c #B9B17A",
"M+	c #BBB37D",
"N+	c #D1CBA3",
"O+	c #EDEADB",
"P+	c #ECE9DA",
"Q+	c #EDEBDC",
"R+	c #ECE9D9",
"S+	c #ECEADA",
"T+	c #EDEAD9",
"U+	c #ECEAD8",
"V+	c #DBD6B6",
"W+	c #ADA369",
"X+	c #B7AD73",
"Y+	c #625E3E",
"Z+	c #6D6849",
"`+	c #B9B07A",
" @	c #DCD7B8",
".@	c #FEFEFE",
"+@	c #E7E3CE",
"@@	c #B7AE74",
"#@	c #656040",
"$@	c #0E0D08",
"%@	c #A09867",
"&@	c #BEB580",
"*@	c #DAD5B6",
"=@	c #696969",
"-@	c #BEBEBD",
";@	c #9C9C9C",
">@	c #ADADAD",
",@	c #E6E2CC",
"'@	c #BDB47F",
")@	c #B8AE74",
"!@	c #736E4D",
"~@	c #BDB57F",
"{@	c #B8AE77",
"]@	c #DBD6B7",
"^@	c #383838",
"/@	c #878786",
"(@	c #777777",
"_@	c #323232",
":@	c #DFDFDF",
"<@	c #E8E4CD",
"[@	c #B5AB74",
"}@	c #96927E",
"|@	c #A7A070",
"1@	c #BCB47E",
"2@	c #DCD7B9",
"3@	c #FDFDFD",
"4@	c #E5E2CB",
"5@	c #BAB178",
"6@	c #645F40",
"7@	c #C1BEA8",
"8@	c #B5AD7B",
"9@	c #D8D2B0",
"0@	c #F8F7F0",
"a@	c #F9F8F0",
"b@	c #FAF9F2",
"c@	c #F9F8F1",
"d@	c #E2DEC4",
"e@	c #B9B075",
"f@	c #666142",
"g@	c #0D0D0B",
"h@	c #76704E",
"i@	c #C0B884",
"j@	c #BAB279",
"k@	c #B5AC72",
"l@	c #B7AD75",
"m@	c #B2A96D",
"n@	c #B5AB71",
"o@	c #B4AA70",
"p@	c #B3AA6F",
"q@	c #BDB47E",
"r@	c #BAB076",
"s@	c #706D5A",
"t@	c #C0B67C",
"u@	c #BEB680",
"v@	c #BCB37E",
"w@	c #C1B985",
"x@	c #BEB681",
"y@	c #BEB581",
"z@	c #BDB580",
"A@	c #BBB279",
"B@	c #131209",
"C@	c #B4AB70",
"D@	c #BFB682",
"E@	c #BEB480",
"F@	c #BFB67F",
"G@	c #908D77",
"H@	c #A69E72",
"I@	c #C4BC85",
"J@	c #C5BC87",
"K@	c #C0B781",
"L@	c #C5BD88",
"M@	c #C3BA84",
"N@	c #C3BA83",
"O@	c #C1B982",
"P@	c #C0B780",
"Q@	c #C3BB85",
"R@	c #C2BA83",
"S@	c #C1B981",
"T@	c #BFB67E",
"U@	c #C0B77F",
"V@	c #BDB47C",
"W@	c #BEB47D",
"X@	c #BEB57D",
"Y@	c #C2B87E",
"Z@	c #656141",
"`@	c #8E8D83",
" #	c #585439",
".#	c #686445",
"+#	c #696446",
"@#	c #6B674A",
"##	c #686346",
"$#	c #696444",
"%#	c #66655C",
"&#	c #686344",
"*#	c #686245",
"=#	c #686446",
"-#	c #686345",
";#	c #676243",
">#	c #656041",
",#	c #645F3F",
"'#	c #676244",
")#	c #565236",
"        . + @ # $ $ % @ % $ & & & * = - * ; > & , ' )           ",
"        ! ~ { ] ^ / ( _ : < [ } | 1 | 2 3 1 2 4 5 6 7           ",
"        8 9 0 a 0 b b a c d e f 0 g h c i j k l m n o           ",
"        p q a r g s g t u h k v r l w x k y z A l B o           ",
"        C D E g F G H I J K L M N O P Q R Q S T 0 U V           ",
"        W X Y _ Z ` ` ` ` ` ` ` ` ` ` ` ` `  ...E +.@.          ",
"        ! #.b $.%.&.&.&.&.&.&.` *.&.&.*.` &.=.-.;.>.,.          ",
"        '.).E !.%.&.~.{.].^.^./.(.~.~._.:.` =.<.[.}.|.          ",
"        1.2.3.4.5.` 6.! 7.8.! 9.0.a.b.^.c.` d.e.e }.f.          ",
"        g.h.Y i.j.&.k.l.m.n.o.m.p.q.k.&.q.&.=.r.b s.t.          ",
"        u.v.w.x.5.&.&.&.&.&.&.&.&.&.&.&.&.&.y.z.e A.B.          ",
"        ! C.D.E.F.` ` ` ` ` ` ` ` ` ` ` ` ` G.H.e I.J.          ",
"        K.L.D.M.N.O.P.Q.R.Q.S.P.Q.T.U.V.W.X.Y.Z.e `.B.          ",
"         +.+++Z.@+#+#+3.$+%+&+M.Y M.$+*+=+h -+M.$+;+>+          ",
"        ! ,+'+D.)+!+~+{+]+^+e /+D./+{+D.(+_+D.w.D.I.|.          ",
"        :+<+[+}+&+/+|+_+^+1+2+3+E.4+4+(+}+5+6+M.7+8+|.          ",
"        9+0+1+3+'+a+a+~+2+|+_+3+}+|+|+b+#+Z.}+6+Z.c+|.          ",
"        d+b e+}+D.}+a+_+D.}+f+g+a+h+b+i+-+}+j+6+~+k+l+          ",
"        m+n+o+|+g+a+a+2+^+p+{+_+q+'+3+a+|+/+r+D.4+s+t+          ",
"        ! u+q+M.}+v+w+}+_+e+D.i+e+3+i+'+x+}+y+_+}+z+A+          ",
"        B+C+y+D+2+6+_+v+E+F+v+G+E+e+_+v+/+2+&+p+Z.H+I+          ",
"        J+K+|+v+L+M+N+O+P+O+Q+O+R+S+T+U+V+'+a+_+W+X+Y+          ",
"        ! Z+2+i+`+'+ @&..@&.` ` .@.@.@.@+@_+2+j+}+@@#@          ",
"        $@%@D+v+`+&@*@p.` ` =@-@;@>@` ` ,@'@e+)+7+)@I+          ",
"        ! !@~@{@D+e+]@` ^@` ! /@6.(@_@:@<@2+)+[@'+z+|.          ",
"        }@|@e+1@w+2+2@&.` 3@` ` ` ` ` ` 4@v+'+|+6+5@6@          ",
"        7@8@e+v+e+&@9@0@a@b@c@a@c@c@c@c@d@/+D+'+3+e@f@          ",
"        g@h@v+'@`+i@D+j@k@l@m@n@o@!+}+p@o@q@2+_+i+r@I+          ",
"        s@t@u@v@v@w@x@x@w+y@&@z@1@1@u@D+`+w+'+_+_+A@Y+          ",
"        B@C@D@~@~@D@v+~@{@e+D._+'+'+y+D.3+1@1@E@e+F@A+          ",
"        G@H@I@J@K@L@M@N@O@P@Q@O@R@S@R@F@T@U@V@W@X@Y@Z@          ",
"        `@ #.#+#@###$#%#&#*###=#=#-#+#6@-#;#&#>#,#'#)#          "};
