<?xml version="1.0" encoding="UTF-8" standalone="no"?>
<!-- Created with Inkscape (http://www.inkscape.org/) -->

<svg
   xmlns:dc="http://purl.org/dc/elements/1.1/"
   xmlns:cc="http://creativecommons.org/ns#"
   xmlns:rdf="http://www.w3.org/1999/02/22-rdf-syntax-ns#"
   xmlns:svg="http://www.w3.org/2000/svg"
   xmlns="http://www.w3.org/2000/svg"
   xmlns:sodipodi="http://sodipodi.sourceforge.net/DTD/sodipodi-0.dtd"
   xmlns:inkscape="http://www.inkscape.org/namespaces/inkscape"
   version="1.1"
   width="32"
   height="32"
   id="svg2"
   inkscape:version="0.92.3 (2405546, 2018-03-11)"
   sodipodi:docname="type.svg">
  <sodipodi:namedview
     pagecolor="#ffffff"
     bordercolor="#666666"
     borderopacity="1"
     objecttolerance="10"
     gridtolerance="10"
     guidetolerance="10"
     inkscape:pageopacity="0"
     inkscape:pageshadow="2"
     inkscape:window-width="1366"
     inkscape:window-height="745"
     id="namedview3164"
     showgrid="true"
     inkscape:zoom="17.53125"
     inkscape:cx="16"
     inkscape:cy="16"
     inkscape:window-x="0"
     inkscape:window-y="0"
     inkscape:window-maximized="1"
     inkscape:current-layer="g3034">
    <inkscape:grid
       type="xygrid"
       id="grid828" />
  </sodipodi:namedview>
  <defs
     id="defs4" />
  <metadata
     id="metadata7">
    <rdf:RDF>
      <cc:Work
         rdf:about="">
        <dc:format>image/svg+xml</dc:format>
        <dc:type
           rdf:resource="http://purl.org/dc/dcmitype/StillImage" />
        <dc:title></dc:title>
      </cc:Work>
    </rdf:RDF>
  </metadata>
  <g
     transform="translate(0,-1020.3622)"
     id="layer1">
    <g
       transform="matrix(0.33862259,0,0,0.33862259,5.4435197,691.3471)"
       id="g3034">
      <path
         style="fill:none;stroke:#ff0000;stroke-width:4.42971039;stroke-linecap:butt;stroke-linejoin:miter;stroke-miterlimit:4;stroke-dasharray:none;stroke-opacity:1"
         d="m 50.545361,990.92542 0,59.90938"
         id="path3166"
         inkscape:connector-curvature="0" />
      <g
         transform="matrix(0.81167615,0,0,0.81167615,-7.3430993,202.88911)"
         style="font-style:normal;font-variant:normal;font-weight:normal;font-stretch:normal;font-size:66.44565582px;line-height:125%;font-family:Ubuntu;-inkscape-font-specification:Ubuntu;text-align:start;letter-spacing:0px;word-spacing:0px;writing-mode:lr-tb;text-anchor:start;fill:#01009e;fill-opacity:1;stroke:none;stroke-width:1px;stroke-linecap:butt;stroke-linejoin:miter;stroke-opacity:1"
         id="text4685">
        <path
           inkscape:connector-curvature="0"
           d="m 54.630006,1028.3368 q -1.129576,-2.9901 -2.126261,-5.8472 -0.996685,-2.9236 -2.059815,-5.9137 l -20.863937,0 -4.186076,11.7609 -6.711011,0 q 2.657826,-7.309 4.983424,-13.4885 2.325598,-6.2459 4.518304,-11.8273 2.259153,-5.58152 4.451859,-10.63132 2.192707,-5.11634 4.584751,-10.09976 l 5.913663,0 q 2.392044,4.98342 4.584751,10.09976 2.192706,5.0498 4.385413,10.63132 2.259152,5.5814 4.58475,11.8273 2.325598,6.1795 4.983424,13.4885 l -7.043239,0 z m -6.046555,-17.0766 q -2.126261,-5.7807 -4.252522,-11.1628 -2.059815,-5.44862 -4.318967,-10.43202 -2.325598,4.9834 -4.451859,10.43202 -2.059816,5.3821 -4.119631,11.1628 l 17.142979,0 z"
           id="path5341" />
      </g>
    </g>
  </g>
</svg>
