<?xml version="1.0" encoding="UTF-8" standalone="no"?>
<!-- Created with Inkscape (http://www.inkscape.org/) -->

<svg
   xmlns:dc="http://purl.org/dc/elements/1.1/"
   xmlns:cc="http://creativecommons.org/ns#"
   xmlns:rdf="http://www.w3.org/1999/02/22-rdf-syntax-ns#"
   xmlns:svg="http://www.w3.org/2000/svg"
   xmlns="http://www.w3.org/2000/svg"
   xmlns:sodipodi="http://sodipodi.sourceforge.net/DTD/sodipodi-0.dtd"
   xmlns:inkscape="http://www.inkscape.org/namespaces/inkscape"
   width="32"
   height="32"
   id="svg2"
   version="1.1"
   inkscape:version="0.91 r"
   sodipodi:docname="move.svg">
  <defs
     id="defs4" />
  <sodipodi:namedview
     id="base"
     pagecolor="#ffffff"
     bordercolor="#666666"
     borderopacity="1.0"
     inkscape:pageopacity="0.0"
     inkscape:pageshadow="2"
     inkscape:zoom="17.6875"
     inkscape:cx="16"
     inkscape:cy="16"
     inkscape:document-units="px"
     inkscape:current-layer="layer1"
     showgrid="true"
     width="0px"
     height="0px"
     fit-margin-top="0"
     fit-margin-left="0"
     fit-margin-right="0"
     fit-margin-bottom="0"
     inkscape:snap-bbox="true"
     inkscape:object-paths="true"
     inkscape:snap-intersection-paths="true"
     inkscape:object-nodes="true"
     inkscape:snap-smooth-nodes="true"
     inkscape:window-width="1198"
     inkscape:window-height="744"
     inkscape:window-x="0"
     inkscape:window-y="0"
     inkscape:window-maximized="0"
     inkscape:snap-grids="false"
     inkscape:snap-to-guides="false"
     inkscape:snap-global="false">
    <inkscape:grid
       type="xygrid"
       id="grid3968"
       empspacing="8"
       visible="true"
       enabled="true"
       snapvisiblegridlinesonly="true" />
  </sodipodi:namedview>
  <metadata
     id="metadata7">
    <rdf:RDF>
      <cc:Work
         rdf:about="">
        <dc:format>image/svg+xml</dc:format>
        <dc:type
           rdf:resource="http://purl.org/dc/dcmitype/StillImage" />
        <dc:title />
      </cc:Work>
    </rdf:RDF>
  </metadata>
  <g
     inkscape:label="Layer 1"
     inkscape:groupmode="layer"
     id="layer1"
     transform="translate(0,-1020.3622)">
    <g
       style="font-style:normal;font-variant:normal;font-weight:normal;font-stretch:normal;font-size:18px;line-height:125%;font-family:FontAwesome;-inkscape-font-specification:FontAwesome;letter-spacing:0px;word-spacing:0px;fill:#000000;fill-opacity:1;stroke:none"
       id="text8376">
      <path
         d="m 25,1036.3622 c 0,-0.1708 -0.07031,-0.3315 -0.190848,-0.452 l -2.571429,-2.5714 c -0.120536,-0.1206 -0.28125,-0.1909 -0.452009,-0.1909 -0.351562,0 -0.642857,0.2913 -0.642857,0.6429 l 0,1.2857 -3.857143,0 0,-3.8572 1.285715,0 c 0.351562,0 0.642857,-0.2913 0.642857,-0.6428 0,-0.1708 -0.07031,-0.3315 -0.190849,-0.452 l -2.571428,-2.5715 c -0.120536,-0.1205 -0.28125,-0.1908 -0.452009,-0.1908 -0.170759,0 -0.331473,0.07 -0.452009,0.1908 l -2.571428,2.5715 c -0.120536,0.1205 -0.190849,0.2812 -0.190849,0.452 0,0.3515 0.291295,0.6428 0.642857,0.6428 l 1.285715,0 0,3.8572 -3.857143,0 0,-1.2857 c 0,-0.3516 -0.291295,-0.6429 -0.642857,-0.6429 -0.170759,0 -0.3314735,0.07 -0.4520092,0.1909 l -2.5714286,2.5714 C 7.0703125,1036.0307 7,1036.1914 7,1036.3622 c 0,0.1708 0.070312,0.3315 0.1908482,0.452 l 2.5714286,2.5714 c 0.1205357,0.1206 0.2812502,0.1909 0.4520092,0.1909 0.351562,0 0.642857,-0.2913 0.642857,-0.6429 l 0,-1.2857 3.857143,0 0,3.8572 -1.285715,0 c -0.351562,0 -0.642857,0.2913 -0.642857,0.6428 0,0.1708 0.07031,0.3315 0.190849,0.452 l 2.571428,2.5715 c 0.120536,0.1205 0.28125,0.1908 0.452009,0.1908 0.170759,0 0.331473,-0.07 0.452009,-0.1908 l 2.571428,-2.5715 c 0.120536,-0.1205 0.190849,-0.2812 0.190849,-0.452 0,-0.3515 -0.291295,-0.6428 -0.642857,-0.6428 l -1.285715,0 0,-3.8572 3.857143,0 0,1.2857 c 0,0.3516 0.291295,0.6429 0.642857,0.6429 0.170759,0 0.331473,-0.07 0.452009,-0.1909 l 2.571429,-2.5714 C 24.929687,1036.6937 25,1036.533 25,1036.3622 Z"
         style=""
         id="path4137" />
    </g>
  </g>
</svg>
