<?xml version="1.0" encoding="UTF-8" standalone="no"?>
<!-- Created with Inkscape (http://www.inkscape.org/) -->

<svg
   xmlns:dc="http://purl.org/dc/elements/1.1/"
   xmlns:cc="http://creativecommons.org/ns#"
   xmlns:rdf="http://www.w3.org/1999/02/22-rdf-syntax-ns#"
   xmlns:svg="http://www.w3.org/2000/svg"
   xmlns="http://www.w3.org/2000/svg"
   xmlns:sodipodi="http://sodipodi.sourceforge.net/DTD/sodipodi-0.dtd"
   xmlns:inkscape="http://www.inkscape.org/namespaces/inkscape"
   version="1.1"
   width="32"
   height="32"
   id="svg2"
   inkscape:version="0.48.4 r9939"
   sodipodi:docname="nav-find.svg">
  <sodipodi:namedview
     pagecolor="#ffffff"
     bordercolor="#666666"
     borderopacity="1"
     objecttolerance="10"
     gridtolerance="10"
     guidetolerance="10"
     inkscape:pageopacity="0"
     inkscape:pageshadow="2"
     inkscape:window-width="1366"
     inkscape:window-height="745"
     id="namedview12"
     showgrid="false"
     inkscape:zoom="17.71875"
     inkscape:cx="8.8324515"
     inkscape:cy="16"
     inkscape:window-x="0"
     inkscape:window-y="0"
     inkscape:window-maximized="1"
     inkscape:current-layer="text3006" />
  <defs
     id="defs4" />
  <metadata
     id="metadata7">
    <rdf:RDF>
      <cc:Work
         rdf:about="">
        <dc:format>image/svg+xml</dc:format>
        <dc:type
           rdf:resource="http://purl.org/dc/dcmitype/StillImage" />
        <dc:title />
      </cc:Work>
    </rdf:RDF>
  </metadata>
  <g
     transform="translate(0,-1020.3622)"
     id="layer1">
    <g
       id="text3003"
       style="font-size:14px;font-style:normal;font-variant:normal;font-weight:normal;font-stretch:normal;text-align:start;line-height:125%;letter-spacing:0px;word-spacing:0px;writing-mode:lr-tb;text-anchor:start;fill:#000000;fill-opacity:1;stroke:none;font-family:Albertus Medium;-inkscape-font-specification:'Albertus Medium,'">
      <g
         id="text3006"
         style="line-height:125%;fill:#000000;font-family:Albertus Medium;-inkscape-font-specification:Albertus Medium;stroke-width:1;stroke-miterlimit:4;stroke-dasharray:none">
        <g
           transform="matrix(0.45999417,0,0,0.45999417,2.5766075,1040.4851)"
           style="font-size:40px;font-style:normal;font-variant:normal;font-weight:normal;font-stretch:normal;line-height:125%;letter-spacing:0px;word-spacing:0px;fill:#000000;fill-opacity:1;stroke:none;font-family:FontAwesome;-inkscape-font-specification:FontAwesome"
           id="text2988">
          <path
             d="m 36.324514,-11.820106 c 0,5.5133875 -4.486612,10.0000001 -10,10.0000001 -5.513387,0 -10,-4.4866126 -10,-10.0000001 0,-5.513387 4.486613,-10 10,-10 5.513388,0 10,4.486613 10,10 M 47.753086,6.7513227 c 0,-0.7589278 -0.312501,-1.4955362 -0.825893,-2.0089286 l -7.65625,-7.65625 c 1.808034,-2.6116045 2.767857,-5.7366103 2.767857,-8.9062501 0,-8.683027 -7.031259,-15.714286 -15.714286,-15.714286 -8.683027,0 -15.714285,7.031259 -15.714285,15.714286 0,8.6830271 7.031258,15.7142858 15.714285,15.7142858 3.16964,0 6.294646,-0.9598232 8.90625,-2.7678571 l 7.65625,7.6339285 c 0.513393,0.5357138 1.250001,0.8482143 2.008929,0.8482143 1.562498,0 2.857143,-1.2946444 2.857143,-2.8571428"
             id="path2993"
             inkscape:connector-curvature="0" />
        </g>
      </g>
    </g>
  </g>
</svg>
