<?xml version="1.0" encoding="UTF-8" standalone="no"?>
<!-- Created with Inkscape (http://www.inkscape.org/) -->

<svg
   xmlns:dc="http://purl.org/dc/elements/1.1/"
   xmlns:cc="http://creativecommons.org/ns#"
   xmlns:rdf="http://www.w3.org/1999/02/22-rdf-syntax-ns#"
   xmlns:svg="http://www.w3.org/2000/svg"
   xmlns="http://www.w3.org/2000/svg"
   xmlns:sodipodi="http://sodipodi.sourceforge.net/DTD/sodipodi-0.dtd"
   xmlns:inkscape="http://www.inkscape.org/namespaces/inkscape"
   version="1.1"
   width="32"
   height="32"
   id="svg2"
   inkscape:version="0.91 r"
   sodipodi:docname="plain.svg">
  <sodipodi:namedview
     pagecolor="#ffffff"
     bordercolor="#666666"
     borderopacity="1"
     objecttolerance="10"
     gridtolerance="10"
     guidetolerance="10"
     inkscape:pageopacity="0"
     inkscape:pageshadow="2"
     inkscape:window-width="743"
     inkscape:window-height="480"
     id="namedview6059"
     showgrid="false"
     inkscape:zoom="7.375"
     inkscape:cx="16"
     inkscape:cy="16"
     inkscape:window-x="0"
     inkscape:window-y="0"
     inkscape:window-maximized="0"
     inkscape:current-layer="layer1" />
  <defs
     id="defs4" />
  <metadata
     id="metadata7">
    <rdf:RDF>
      <cc:Work
         rdf:about="">
        <dc:format>image/svg+xml</dc:format>
        <dc:type
           rdf:resource="http://purl.org/dc/dcmitype/StillImage" />
        <dc:title />
      </cc:Work>
    </rdf:RDF>
  </metadata>
  <g
     transform="translate(0,-1020.3622)"
     id="layer1">
    <path
       inkscape:connector-curvature="0"
       style="fill:none;stroke:#000000;stroke-width:1px;stroke-linecap:butt;stroke-linejoin:miter;stroke-opacity:1"
       id="path3845"
       d="m 16.245325,1028.1514 c 0,-4.1823 0,-4.1823 0,-4.1823" />
    <path
       inkscape:connector-curvature="0"
       style="fill:none;stroke:#000000;stroke-width:1px;stroke-linecap:butt;stroke-linejoin:miter;stroke-opacity:1"
       id="path3847"
       d="m 25.206993,1030.1224 2.969773,-2.5833" />
    <path
       inkscape:connector-curvature="0"
       style="fill:none;stroke:#000000;stroke-width:1px;stroke-linecap:butt;stroke-linejoin:miter;stroke-opacity:1"
       id="path3849"
       d="m 25.399438,1045.1418 2.707554,2.9655" />
    <path
       inkscape:connector-curvature="0"
       style="fill:none;stroke:#000000;stroke-width:1px;stroke-linecap:butt;stroke-linejoin:miter;stroke-opacity:1"
       id="path3851"
       d="m 15.987463,1047.0258 0,3.9713" />
    <path
       inkscape:connector-curvature="0"
       style="fill:none;stroke:#000000;stroke-width:1px;stroke-linecap:butt;stroke-linejoin:miter;stroke-opacity:1"
       id="path3853"
       d="M 5.8528305,1045.3197 3.0434187,1047.93" />
    <path
       inkscape:connector-curvature="0"
       style="fill:none;stroke:#000000;stroke-width:1px;stroke-linecap:butt;stroke-linejoin:miter;stroke-opacity:1"
       id="path3855"
       d="M 6.0530938,1030.2126 3.101018,1026.9362" />
    <g
       transform="matrix(0.27485188,0,0,0.27485188,7.4315566,756.21169)"
       style="font-style:normal;font-variant:normal;font-weight:normal;font-stretch:normal;font-size:66.44565582px;line-height:125%;font-family:Ubuntu;-inkscape-font-specification:Ubuntu;text-align:start;letter-spacing:0px;word-spacing:0px;writing-mode:lr-tb;text-anchor:start;fill:#01009e;fill-opacity:1;stroke:none;stroke-width:1px;stroke-linecap:butt;stroke-linejoin:miter;stroke-opacity:1"
       id="text4685">
      <path
         inkscape:connector-curvature="0"
         d="m 30.506676,1039.8113 q -1.129576,-2.9901 -2.126261,-5.8472 -0.996685,-2.9236 -2.059815,-5.9137 l -20.8639364,0 -4.1860763,11.7609 -6.7110112,0 q 2.6578262,-7.309 4.98342418,-13.4885 2.32559792,-6.2459 4.51830462,-11.8273 2.2591523,-5.5815 4.4518589,-10.6313 2.1927062,-5.11634 4.5847502,-10.09976 l 5.913663,0 q 2.392044,4.98342 4.584751,10.09976 2.192706,5.0498 4.385413,10.6313 2.259152,5.5814 4.58475,11.8273 2.325598,6.1795 4.983424,13.4885 l -7.043239,0 z m -6.046555,-17.0766 q -2.126261,-5.7807 -4.252522,-11.1628 -2.059815,-5.4486 -4.318967,-10.432 -2.325598,4.9834 -4.451859,10.432 -2.0598157,5.3821 -4.119631,11.1628 l 17.142979,0 z"
         id="path5341" />
      <path
         inkscape:connector-curvature="0"
         d="m 55.032392,1035.3594 q 2.192707,0 3.853848,-0.066 1.727587,-0.1329 2.857163,-0.3987 l 0,-10.2991 q -0.664456,-0.3322 -2.192706,-0.5315 -1.461805,-0.2658 -3.588066,-0.2658 -1.395359,0 -2.990054,0.1993 -1.52825,0.1994 -2.857164,0.8638 -1.262467,0.598 -2.126261,1.7276 -0.863793,1.0631 -0.863793,2.8572 0,3.3222 2.126261,4.6512 2.126261,1.2624 5.780772,1.2624 z m -0.531565,-30.9637 q 3.720956,0 6.245891,0.9967 2.591381,0.9303 4.119631,2.7243 1.594696,1.7276 2.259152,4.1861 0.664457,2.392 0.664457,5.3156 l 0,21.5949 q -0.797348,0.1329 -2.259152,0.3986 -1.395359,0.1994 -3.189392,0.3987 -1.794033,0.1994 -3.920294,0.3322 -2.059815,0.1994 -4.11963,0.1994 -2.923609,0 -5.382098,-0.598 -2.45849,-0.598 -4.252522,-1.8605 -1.794033,-1.3289 -2.790718,-3.4552 -0.996685,-2.1262 -0.996685,-5.1163 0,-2.8572 1.129576,-4.917 1.196022,-2.0598 3.189392,-3.3223 1.99337,-1.2624 4.651196,-1.8604 2.657826,-0.598 5.581435,-0.598 0.930239,0 1.926924,0.1328 0.996685,0.066 1.860478,0.2658 0.930239,0.1329 1.594696,0.2658 0.664457,0.1329 0.930239,0.1993 l 0,-1.7275 q 0,-1.5283 -0.332228,-2.9901 -0.332228,-1.5282 -1.196022,-2.6578 -0.863793,-1.196 -2.392044,-1.8605 -1.461804,-0.7309 -3.853848,-0.7309 -3.0565,0 -5.382098,0.4651 -2.259152,0.3987 -3.388728,0.8638 l -0.730902,-5.1163 q 1.196021,-0.5316 3.986739,-0.9967 2.790718,-0.5316 6.046555,-0.5316 z"
         id="path5343" />
    </g>
  </g>
</svg>
